# xmcd
#
# Track frame offsets: 
#        150
#        9375
#        19912
#        35202
#        51717
#        63567
#        75260
#        89992
#        104505
#        115447
#        124305
#        137415
#        151912
#        166917
#        180585
#        192172
#        203775
#        215892
#        230092
#        239675
#        250672
#        262902
#        276997
#        290375
#        301372
#        317712
#        331477
#
# Disc length: 4553 seconds
#
# Revision: 4
# Processed by: cddbd v1.5.2PL0 Copyright (c) Steve Scherf et al.
# Submitted via: ExactAudioCopyFreeDBPlugin 1.0
#
DISCID=9b11c71b
DTITLE=Country Gentlemen - The Early Rebel Recordings 1962-1971  Disc 
DTITLE=4
DYEAR=1998
DGENRE=Country
TTITLE0=Less of Me
TTITLE1=I Am a Pilgrim
TTITLE2=Weapon of Prayer
TTITLE3=If I Were Free
TTITLE4=Teach Your Children
TTITLE5=Fox on the Run
TTITLE6=Johnny and Jack Medley
TTITLE7=By the Side of the Road
TTITLE8=These Men of God
TTITLE9=Cowboys and Indians
TTITLE10=Sea of Heartbreak
TTITLE11=Orange Blossom Special
TTITLE12=Yesterday
TTITLE13=The Girl behind the Bar
TTITLE14=The Son of Hickory Holler's Tramp
TTITLE15=Country Roads
TTITLE16=Redwood Hill
TTITLE17=Secret of the Waterfall
TTITLE18=Walkin' down the Line
TTITLE19=Breakin' It Down
TTITLE20=New Freedom Bell
TTITLE21=The Old Pine Tree
TTITLE22=The Legend of the Rebel Soldier
TTITLE23=C. G. Express
TTITLE24=Little Bessie
TTITLE25=The Fields Have Turned Brown
TTITLE26=Get In Line Buddy
EXTD=
EXTT0=
EXTT1=
EXTT2=
EXTT3=
EXTT4=
EXTT5=
EXTT6=
EXTT7=
EXTT8=
EXTT9=
EXTT10=
EXTT11=
EXTT12=
EXTT13=
EXTT14=
EXTT15=
EXTT16=
EXTT17=
EXTT18=
EXTT19=
EXTT20=
EXTT21=
EXTT22=
EXTT23=
EXTT24=
EXTT25=
EXTT26=
PLAYORDER=
